<svg width="29" height="30" viewBox="0 0 29 30" fill="none" xmlns="http://www.w3.org/2000/svg">
<path d="M29 15C29 18.9782 27.4723 22.7936 24.753 25.6066C22.0338 28.4196 18.3456 30 14.5 30C10.6544 30 6.96623 28.4196 4.24695 25.6066C1.52767 22.7936 0 18.9782 0 15C0 11.0218 1.52767 7.20644 4.24695 4.3934C6.96623 1.58035 10.6544 0 14.5 0C18.3456 0 22.0338 1.58035 24.753 4.3934C27.4723 7.20644 29 11.0218 29 15V15ZM15.0202 11.0738C13.6101 11.6813 10.7898 12.9375 6.56306 14.8425C5.87794 15.1237 5.51725 15.4012 5.48463 15.6712C5.43025 16.1269 5.98306 16.3069 6.73525 16.5525L7.05244 16.6556C7.79194 16.905 8.78881 17.1956 9.30537 17.2069C9.77662 17.2181 10.3004 17.0194 10.8786 16.6069C14.8281 13.8488 16.8671 12.4556 16.994 12.4256C17.0846 12.4031 17.2115 12.3769 17.2949 12.4556C17.3801 12.5325 17.371 12.6806 17.3619 12.72C17.3076 12.9619 15.138 15.0469 14.0161 16.1269C13.6662 16.4644 13.4179 16.7025 13.3672 16.7569C13.2554 16.875 13.1418 16.9913 13.0264 17.1056C12.3377 17.7919 11.8229 18.3056 13.0536 19.1456C13.6463 19.5506 14.1212 19.8825 14.5943 20.2162C15.109 20.58 15.6237 20.9419 16.2907 21.3956C16.4593 21.5081 16.6224 21.63 16.7801 21.7462C17.3801 22.1887 17.922 22.5863 18.5872 22.5225C18.9751 22.485 19.3756 22.11 19.5786 20.985C20.0589 18.3281 21.0033 12.5737 21.2208 10.2019C21.234 10.0047 21.2261 9.80662 21.1972 9.61125C21.1801 9.4536 21.1064 9.30836 20.9906 9.20437C20.8256 9.08661 20.629 9.02559 20.4287 9.03C19.8849 9.03937 19.0457 9.34125 15.0202 11.0738V11.0738Z" fill="black"/>
</svg>
